<svg xmlns="http://www.w3.org/2000/svg" xmlns:xlink="http://www.w3.org/1999/xlink" width="1080" zoomAndPan="magnify" viewBox="0 0 810 809.999993" height="1080" preserveAspectRatio="xMidYMid meet" version="1.0"><defs><clipPath id="927f5cbbd8"><path d="M 27.191406 122 L 782.441406 122 L 782.441406 688 L 27.191406 688 Z M 27.191406 122 " clip-rule="nonzero"/></clipPath></defs><g clip-path="url(#927f5cbbd8)"><path fill="#c9f31d" d="M 782.804688 142.183594 L 782.804688 667.652344 C 782.804688 680.558594 775.5625 687.800781 762.65625 687.800781 L 673.710938 687.800781 C 660.804688 687.800781 653.5625 680.558594 653.5625 667.652344 L 653.5625 459.226562 L 491.734375 459.226562 L 491.734375 667.808594 C 491.734375 680.71875 484.496094 687.957031 471.585938 687.957031 L 297.164062 687.957031 C 367.21875 666.234375 416.960938 613.5 416.960938 529.4375 C 416.960938 404.917969 306.925781 375.796875 226.167969 347.460938 C 179.257812 330.457031 146.199219 314.246094 146.199219 280.398438 C 146.199219 256.945312 164.777344 236.792969 205.234375 236.792969 C 242.382812 236.792969 263.476562 250.488281 269.933594 280.398438 C 272.292969 293.308594 278.746094 299.761719 291.027344 299.761719 L 379.8125 299.761719 C 392.71875 299.761719 400.90625 292.519531 399.960938 278.667969 C 393.035156 193.1875 342.660156 142.816406 279.0625 122.035156 L 471.585938 122.035156 C 484.496094 122.035156 491.734375 129.277344 491.734375 142.183594 L 491.734375 334.550781 L 653.40625 334.550781 L 653.40625 142.183594 C 653.40625 129.277344 660.648438 122.035156 673.554688 122.035156 L 762.496094 122.035156 C 775.5625 122.035156 782.804688 129.277344 782.804688 142.183594 Z M 197.992188 464.894531 C 133.292969 442.699219 54.898438 416.726562 27.191406 342.421875 L 27.191406 510.230469 C 27.976562 510.230469 28.921875 510.074219 29.867188 510.074219 L 118.808594 510.074219 C 130.929688 510.074219 137.386719 516.527344 139.902344 529.4375 C 146.359375 558.558594 170.601562 573.042969 218.296875 573.042969 C 270.875 573.042969 287.878906 552.890625 287.878906 529.4375 C 287.71875 496.378906 247.261719 481.894531 197.992188 464.894531 Z M 197.992188 464.894531 " fill-opacity="1" fill-rule="nonzero"/></g></svg>